<?xml version="1.0" encoding="UTF-8" standalone="no"?>
<svg
   version="1.1"
   width="796.4276986974265mm"
   height="439.4040255587448mm"
   viewBox="0 0 796.4276986974265 439.4040255587448"
   id="svg44419"
   sodipodi:docname="siege_velo_peluche_joinery_2024-5-15_21.1.6.svg"
   inkscape:version="1.1.2 (0a00cf5339, 2022-02-04)"
   xmlns:inkscape="http://www.inkscape.org/namespaces/inkscape"
   xmlns:sodipodi="http://sodipodi.sourceforge.net/DTD/sodipodi-0.dtd"
   xmlns:xlink="http://www.w3.org/1999/xlink"
   xmlns="http://www.w3.org/2000/svg"
   xmlns:svg="http://www.w3.org/2000/svg">
  <defs
     id="defs44423">
    <linearGradient
       inkscape:collect="always"
       id="linearGradient57974">
      <stop
         style="stop-color:#000000;stop-opacity:1;"
         offset="0"
         id="stop57970" />
      <stop
         style="stop-color:#000000;stop-opacity:0;"
         offset="1"
         id="stop57972" />
    </linearGradient>
    <linearGradient
       inkscape:collect="always"
       xlink:href="#linearGradient57974"
       id="linearGradient57976"
       x1="498.7628"
       y1="179.25601"
       x2="544.55053"
       y2="179.25601"
       gradientUnits="userSpaceOnUse" />
  </defs>
  <sodipodi:namedview
     id="namedview44421"
     pagecolor="#ffffff"
     bordercolor="#666666"
     borderopacity="1.0"
     inkscape:pageshadow="2"
     inkscape:pageopacity="0.0"
     inkscape:pagecheckerboard="0"
     inkscape:document-units="mm"
     showgrid="false"
     inkscape:zoom="0.8152498"
     inkscape:cx="1966.8818"
     inkscape:cy="1220.4848"
     inkscape:window-width="1920"
     inkscape:window-height="1011"
     inkscape:window-x="0"
     inkscape:window-y="0"
     inkscape:window-maximized="1"
     inkscape:current-layer="svg44419" />
  <g
     stroke-opacity="0"
     stroke="#000000"
     stroke-width="1"
     stroke-linecap="butt"
     stroke-miterlimit="10"
     font-family="sans-serif"
     font-weight="normal"
     id="g44343"
     transform="translate(-117.34946,-21.728172)"
     style="font-size:12px;text-anchor:start;mix-blend-mode:normal;fill:none;stroke-linejoin:miter;stroke-dasharray:none;stroke-dashoffset:0" />
  <g
     stroke-width="1"
     stroke-linecap="butt"
     stroke-miterlimit="10"
     font-family="sans-serif"
     font-weight="normal"
     id="g44345"
     transform="translate(-117.34946,-21.728172)"
     style="font-size:12px;text-anchor:start;mix-blend-mode:normal;fill:none;stroke:none;stroke-linejoin:miter;stroke-dasharray:none;stroke-dashoffset:0" />
  <g
     stroke-width="1"
     stroke-linecap="butt"
     stroke-miterlimit="10"
     font-family="sans-serif"
     font-weight="normal"
     id="g44347"
     transform="translate(-117.34946,-21.728172)"
     style="font-size:12px;text-anchor:start;mix-blend-mode:normal;fill:none;stroke:none;stroke-linejoin:miter;stroke-dasharray:none;stroke-dashoffset:0" />
  <g
     stroke-width="1"
     stroke-linecap="butt"
     stroke-miterlimit="10"
     font-family="sans-serif"
     font-weight="normal"
     id="g44349"
     transform="translate(-117.34946,-21.728172)"
     style="font-size:12px;text-anchor:start;mix-blend-mode:normal;fill:none;stroke:none;stroke-linejoin:miter;stroke-dasharray:none;stroke-dashoffset:0" />
  <g
     stroke="#00aaff"
     stroke-width="2"
     stroke-linecap="butt"
     stroke-miterlimit="10"
     font-family="sans-serif"
     font-weight="normal"
     id="g44351"
     transform="translate(-117.34946,-21.728172)"
     style="font-size:12px;text-anchor:start;mix-blend-mode:normal;fill:none;stroke-linejoin:miter;stroke-dasharray:none;stroke-dashoffset:0" />
  <g
     stroke-width="1"
     stroke-linecap="butt"
     stroke-miterlimit="10"
     font-family="sans-serif"
     font-weight="normal"
     id="g44353"
     transform="translate(-117.34946,-21.728172)"
     style="font-size:12px;text-anchor:start;mix-blend-mode:normal;fill:none;stroke:none;stroke-linejoin:miter;stroke-dasharray:none;stroke-dashoffset:0" />
  <g
     id="shape"
     stroke-linecap="round"
     transform="translate(-117.34946,-21.728172)"
     style="font-size:12px;font-family:none;text-anchor:start;mix-blend-mode:normal;fill:none;stroke:#ff0000;stroke-linejoin:miter;stroke-dasharray:none;stroke-dashoffset:0;stroke-opacity:1">
    <g
       id="g22290">
      <path
         d="M 699.53346,266.02015 H 796.4277"
         id="path33280"
         fill="none"
         stroke="#000005"
         stroke-width="0.5"
         stroke-miterlimit="4"
         font-family="Roboto, sans-serif"
         font-weight="400"
         style="stroke:#ff0000;stroke-width:0.5;stroke-miterlimit:8;stroke-dasharray:none;stroke-opacity:1"
         sodipodi:nodetypes="cc" />
      <path
         d="m 796.4277,266.02015 v 49.89453"
         id="rect31923-5"
         fill="none"
         stroke="#000005"
         stroke-width="0.5"
         stroke-miterlimit="4"
         font-family="Roboto, sans-serif"
         font-weight="400"
         style="stroke:#ff0000;stroke-width:0.5;stroke-miterlimit:8;stroke-dasharray:none;stroke-opacity:1" />
      <g
         id="15_joint"
         stroke="#0000ff"
         stroke-width="1"
         stroke-miterlimit="10"
         font-family="sans-serif"
         font-weight="normal"
         style="stroke:#ff0000;stroke-width:0.5;stroke-miterlimit:8;stroke-dasharray:none;stroke-opacity:1">
        <path
           d="m 699.53346,266.02015 v 0 0 h -2.9e-4 v 8.31575 h -3 v 0 0 8.31576 0 0 h 3 v 8.31575 h -3 v 0 0 8.31575 0 0 h 3 v 8.31575 h -3 v 0 0 5.31526 0"
           id="path44390"
           style="stroke:#ff0000;stroke-width:0.5;stroke-miterlimit:8;stroke-dasharray:none;stroke-opacity:1"
           sodipodi:nodetypes="cccccccccccccccccccccccccc" />
      </g>
      <g
         id="16_joint"
         stroke="#0000ff"
         stroke-width="1"
         stroke-miterlimit="10"
         font-family="sans-serif"
         font-weight="normal"
         style="stroke:#ff0000;stroke-width:0.5;stroke-miterlimit:8;stroke-dasharray:none;stroke-opacity:1">
        <path
           d="m 796.4277,315.91468 v 0 h -8.31418 v 0 0 -3 h -8.31418 v 3 0 0 h -8.31418 v 0 0 -3 h -8.31418 v 3 0 0 h -8.31418 v 0 0 -3 h -8.31418 v 3 0 0 h -8.31418 v 0 0 -3 h -8.31418 v 3 0 0 h -8.31418 v 0 0 -3 h -8.31418 v 3 0 0 h -8.31418 v 0 0 -3 h -8.31418 v 4.9e-4 0 h -0.12441"
           id="path44405"
           style="stroke:#ff0000;stroke-width:0.5;stroke-miterlimit:8;stroke-dasharray:none;stroke-opacity:1"
           sodipodi:nodetypes="cccccccccccccccccccccccccccccccccccccccccccccccccc" />
      </g>
    </g>
    <g
       id="g22298">
      <path
         d="m 485.81793,265.39804 h 99.89453"
         id="path32766"
         fill="none"
         stroke="#000005"
         stroke-width="0.5"
         stroke-miterlimit="4"
         font-family="Roboto, sans-serif"
         font-weight="400"
         style="stroke:#ff0000;stroke-width:0.5;stroke-miterlimit:8;stroke-dasharray:none;stroke-opacity:1" />
      <path
         d="M 485.81793,312.29217 V 265.39804"
         id="path32764"
         fill="none"
         stroke="#000005"
         stroke-width="0.5"
         stroke-miterlimit="4"
         font-family="Roboto, sans-serif"
         font-weight="400"
         style="stroke:#ff0000;stroke-width:0.5;stroke-miterlimit:8;stroke-dasharray:none;stroke-opacity:1"
         sodipodi:nodetypes="cc" />
      <g
         id="13_joint"
         stroke="#0000ff"
         stroke-width="1"
         stroke-miterlimit="10"
         font-family="sans-serif"
         font-weight="normal"
         style="stroke:#ff0000;stroke-width:0.5;stroke-miterlimit:8;stroke-dasharray:none;stroke-opacity:1"
         transform="translate(4.2333333)">
        <path
           d="m 581.47911,265.39804 v 0 8.31571 0 0 h -3 v 8.31571 h 3 v 0 0 8.31571 0 0 h -3 v 8.31571 h 3 v 0 0 8.31571 0 0 h -3 v 8.31571 h 2e-5 v 0 2.9e-4"
           id="path44387"
           style="stroke:#ff0000;stroke-width:0.5;stroke-miterlimit:8;stroke-dasharray:none;stroke-opacity:1"
           sodipodi:nodetypes="cccccccccccccccccccccccccc" />
      </g>
      <g
         id="12_joint"
         stroke="#0000ff"
         stroke-width="1"
         stroke-miterlimit="10"
         font-family="sans-serif"
         font-weight="normal"
         style="stroke:#ff0000;stroke-width:0.5;stroke-miterlimit:8;stroke-dasharray:none;stroke-opacity:1"
         transform="translate(4.2333333)">
        <path
           d="m 578.47913,315.29257 h -5.3142 v 0 0 -3 h -8.31418 v 3 0 0 h -8.31418 v 0 0 -3 h -8.31418 v 3 0 0 h -8.31418 v 0 0 -3 h -8.31418 v 3 0 0 h -8.31418 v 0 0 -3 h -8.31418 v 3 0 0 h -8.31418 v 0 0 -3 h -8.31418 v 3 0 0 h -8.31418 v 0 0 -3 h -8.31418 v -4e-4 0 h -0.12441"
           id="path44411"
           style="stroke:#ff0000;stroke-width:0.5;stroke-miterlimit:8;stroke-dasharray:none;stroke-opacity:1"
           sodipodi:nodetypes="ccccccccccccccccccccccccccccccccccccccccccccccccc" />
      </g>
    </g>
    <g
       id="g22282">
      <path
         d="M 687.24546,439.40403 H 590.47495"
         id="path33533"
         fill="none"
         stroke="#000005"
         stroke-width="0.5"
         stroke-miterlimit="4"
         font-family="Roboto, sans-serif"
         font-weight="400"
         style="stroke:#ff0000;stroke-width:0.5;stroke-miterlimit:8;stroke-dasharray:none;stroke-opacity:1"
         sodipodi:nodetypes="cc" />
      <g
         id="9_joint"
         stroke="#0000ff"
         stroke-width="1"
         stroke-miterlimit="10"
         font-family="sans-serif"
         font-weight="normal"
         style="stroke:#ff0000;stroke-width:0.5;stroke-miterlimit:8;stroke-dasharray:none;stroke-opacity:1">
        <path
           d="m 690.24507,339.63391 v 0 h -8.29396 v 0 0 3 h -8.29396 v -3 0 0 h -8.29396 v 0 0 3 h -8.29396 v -3 0 0 h -8.29396 v 0 0 3 h -8.29396 v -3 0 0 h -8.29396 v 0 0 3 h -8.29396 v -3 0 0 h -8.29396 v 0 0 3 h -8.29396 v -3 0 0 h -8.29396 v 0 0 3 h -5.53705"
           id="path44399"
           style="stroke:#ff0000;stroke-width:0.5;stroke-miterlimit:8;stroke-dasharray:none;stroke-opacity:1"
           sodipodi:nodetypes="ccccccccccccccccccccccccccccccccccccccccccccccc" />
      </g>
      <g
         id="8_joint"
         stroke="#0000ff"
         stroke-width="1"
         stroke-miterlimit="10"
         font-family="sans-serif"
         font-weight="normal"
         style="stroke:#ff0000;stroke-width:0.5;stroke-miterlimit:8;stroke-dasharray:none;stroke-opacity:1">
        <path
           d="m 687.24546,439.40403 v 0 0 h -3.9e-4 v -8.31418 h 3 v 0 0 -8.31418 0 0 h -3 v -8.31418 h 3 v 0 0 -8.31418 0 0 h -3 v -8.31418 h 3 v 0 0 -8.31418 0 0 h -3 v -8.31418 h 3 v 0 0 -8.31418 0 0 h -3 v -8.31418 h 3 v 0 0 -8.31418 0 0 h -3 v -8.31418 h 3 v 0 0 -8.31418 0"
           id="path44402"
           style="stroke:#ff0000;stroke-width:0.5;stroke-miterlimit:8;stroke-dasharray:none;stroke-opacity:1"
           sodipodi:nodetypes="cccccccccccccccccccccccccccccccccccccccccccccccccc" />
      </g>
      <g
         id="6_joint"
         stroke="#0000ff"
         stroke-width="1"
         stroke-miterlimit="10"
         font-family="sans-serif"
         font-weight="normal"
         style="stroke:#ff0000;stroke-width:0.5;stroke-miterlimit:8;stroke-dasharray:none;stroke-opacity:1">
        <path
           d="m 593.47495,342.65417 v 5.29392 h -3 v 0 0 8.31418 0 0 h 3 v 8.31418 h -3 v 0 0 8.31418 0 0 h 3 v 8.31418 h -3 v 0 0 8.31418 0 0 h 3 v 8.31418 h -3 v 0 0 8.31418 0 0 h 3 v 8.31418 h -3 v 0 0 8.31418 0 0 h 3 v 8.31418 h -3 v 0 0 8.31418 0"
           id="path44408"
           style="stroke:#ff0000;stroke-width:0.5;stroke-miterlimit:8;stroke-dasharray:none;stroke-opacity:1"
           sodipodi:nodetypes="ccccccccccccccccccccccccccccccccccccccccccccccc" />
      </g>
      <circle
         id="path39768-3"
         fill="none"
         stroke="#000000"
         stroke-width="0.5"
         stroke-miterlimit="4"
         font-family="Roboto, sans-serif"
         font-weight="400"
         style="font-size:12px;font-family:none;text-anchor:start;mix-blend-mode:normal;fill:none;stroke:#ff0000;stroke-linejoin:miter;stroke-dasharray:none;stroke-dashoffset:0;stroke-opacity:1"
         cy="431.90417"
         cx="630.47449"
         r="1" />
      <circle
         id="path39768-3-6"
         fill="none"
         stroke="#000000"
         stroke-width="0.5"
         stroke-miterlimit="4"
         font-family="Roboto, sans-serif"
         font-weight="400"
         style="font-size:12px;font-family:none;text-anchor:start;mix-blend-mode:normal;fill:none;stroke:#ff0000;stroke-linejoin:miter;stroke-dasharray:none;stroke-dashoffset:0;stroke-opacity:1"
         cy="431.91418"
         cx="650.47449"
         r="1" />
    </g>
  </g>
  <g
     id="g22324">
    <path
       d="m 690.00251,179.52333 v 85.875"
       id="path33093"
       fill="none"
       stroke="#000005"
       stroke-width="0.5"
       stroke-miterlimit="4"
       font-family="Roboto, sans-serif"
       font-weight="400"
       style="font-size:12px;font-family:none;text-anchor:start;mix-blend-mode:normal;fill:none;stroke:#ff0000;stroke-linejoin:miter;stroke-dasharray:none;stroke-dashoffset:0;stroke-opacity:1"
       transform="translate(-117.34946,-21.728172)" />
    <path
       d="m 590.47495,265.39834 v -85.875"
       id="path33101"
       fill="none"
       stroke="#000005"
       stroke-width="0.5"
       stroke-miterlimit="4"
       font-family="Roboto, sans-serif"
       font-weight="400"
       style="font-size:12px;font-family:none;text-anchor:start;mix-blend-mode:normal;fill:none;stroke:#ff0000;stroke-linejoin:miter;stroke-dasharray:none;stroke-dashoffset:0;stroke-opacity:1"
       transform="translate(-117.34946,-21.728172)" />
    <path
       d="m 590.47495,179.52333 c 33.56541,-18.34317 66.73652,-18.11973 99.52756,0"
       id="rect31715"
       fill="none"
       stroke="#000005"
       stroke-width="0.5"
       stroke-miterlimit="4"
       font-family="Roboto, sans-serif"
       font-weight="400"
       style="font-size:12px;font-family:none;text-anchor:start;mix-blend-mode:normal;fill:none;stroke:#ff0000;stroke-linejoin:miter;stroke-dasharray:none;stroke-dashoffset:0;stroke-opacity:1"
       transform="translate(-117.34946,-21.728172)" />
    <circle
       cx="602.76892"
       cy="253.80136"
       r="5"
       id="path39768"
       fill="none"
       stroke="#000000"
       stroke-width="0.5"
       stroke-miterlimit="4"
       font-family="Roboto, sans-serif"
       font-weight="400"
       style="font-size:12px;font-family:none;text-anchor:start;mix-blend-mode:normal;fill:none;stroke:#ff0000;stroke-linejoin:miter;stroke-dasharray:none;stroke-dashoffset:0;stroke-opacity:1"
       transform="translate(-117.34946,-21.728172)" />
    <circle
       cx="676.37677"
       cy="253.80136"
       r="5"
       id="path39768-9"
       fill="none"
       stroke="#000000"
       stroke-width="0.5"
       stroke-miterlimit="4"
       font-family="Roboto, sans-serif"
       font-weight="400"
       style="font-size:12px;font-family:none;text-anchor:start;mix-blend-mode:normal;fill:none;stroke:#ff0000;stroke-linejoin:miter;stroke-dasharray:none;stroke-dashoffset:0;stroke-opacity:1"
       transform="translate(-117.34946,-21.728172)" />
    <g
       id="0_joint"
       stroke="#0000ff"
       stroke-width="1"
       stroke-miterlimit="10"
       font-family="sans-serif"
       font-weight="normal"
       style="font-size:12px;font-family:none;text-anchor:start;mix-blend-mode:normal;fill:none;stroke:#ff0000;stroke-width:0.5;stroke-linejoin:miter;stroke-miterlimit:8;stroke-dasharray:none;stroke-dashoffset:0;stroke-opacity:1"
       transform="translate(-117.34946,-21.728172)">
      <path
         d="m 590.47495,265.39834 v 0 0 h 3 v 8.31571 h -3 v 0 0 8.31571 0 0 h 3 v 8.31571 h -3 v 0 0 8.31571 0 0 h 3 v 8.31571 h -3 v 0 0 8.31571 0"
         id="path44384"
         style="stroke:#ff0000;stroke-width:0.5;stroke-miterlimit:8;stroke-dasharray:none;stroke-opacity:1" />
    </g>
    <g
       id="2_joint"
       stroke="#0000ff"
       stroke-width="1"
       stroke-miterlimit="10"
       font-family="sans-serif"
       font-weight="normal"
       style="font-size:12px;font-family:none;text-anchor:start;mix-blend-mode:normal;fill:none;stroke:#ff0000;stroke-width:0.5;stroke-linejoin:miter;stroke-miterlimit:8;stroke-dasharray:none;stroke-dashoffset:0;stroke-opacity:1"
       transform="translate(-117.34946,-21.728172)">
      <path
         d="m 690.00251,265.39834 v 0 8.31576 0 0 h -3 v 8.31575 h 3 v 0 0 8.31575 0 0 h -3 v 8.31575 h 3 v 0 0 8.31576 0 0 h -3 v 5.31506"
         id="path44393"
         style="stroke:#ff0000;stroke-width:0.5;stroke-miterlimit:8;stroke-dasharray:none;stroke-opacity:1"
         sodipodi:nodetypes="ccccccccccccccccccccccc" />
    </g>
    <g
       id="1_joint"
       stroke="#0000ff"
       stroke-width="1"
       stroke-miterlimit="10"
       font-family="sans-serif"
       font-weight="normal"
       style="font-size:12px;font-family:none;text-anchor:start;mix-blend-mode:normal;fill:none;stroke:#ff0000;stroke-width:0.5;stroke-linejoin:miter;stroke-miterlimit:8;stroke-dasharray:none;stroke-dashoffset:0;stroke-opacity:1"
       transform="translate(-117.34946,-21.728172)">
      <path
         d="m 687.00246,312.29258 h -5.29391 v 3 0 0 h -8.29396 v 0 0 -3 h -8.29396 v 3 0 0 h -8.29396 v 0 0 -3 h -8.29396 v 3 0 0 h -8.29396 v 0 0 -3 h -8.29396 v 3 0 0 h -8.29396 v 0 0 -3 h -8.29396 v 3 0 0 h -8.29396 v 0 0 -3 h -8.29396 v 3 0 0 h -8.29396 v 0"
         id="path44396"
         style="stroke:#ff0000;stroke-width:0.5;stroke-miterlimit:8;stroke-dasharray:none;stroke-opacity:1"
         sodipodi:nodetypes="ccccccccccccccccccccccccccccccccccccccccccccccc" />
    </g>
    <text
       xml:space="preserve"
       style="font-size:22.5778px;line-height:1.25;font-family:Vemana2000;-inkscape-font-specification:Vemana2000;fill:#00f700;fill-opacity:1;stroke:none;stroke-width:0.264583"
       x="498.01773"
       y="186.06322"
       id="text46684"><tspan
         sodipodi:role="line"
         id="tspan46682"
         style="font-style:normal;font-variant:normal;font-weight:normal;font-stretch:normal;font-size:22.5778px;font-family:Z003;-inkscape-font-specification:Z003;fill:#00f700;fill-opacity:1;stroke:none;stroke-width:0.264583"
         x="498.01773"
         y="186.06322">Louis</tspan></text>
  </g>
</svg>
